/* XPM */
static char *_3ec4dc0529e4d90f4ec542ca5a007b7[] = {
/* columns rows colors chars-per-pixel */
"16 16 123 2 ",
"   c #0F0100",
".  c #0D0806",
"X  c #0E0806",
"o  c #190B06",
"O  c #100F0E",
"+  c #150D0C",
"@  c #170E0C",
"#  c #15100E",
"$  c #15110F",
"%  c #151211",
"&  c #121615",
"*  c #181210",
"=  c #191413",
"-  c #1F1613",
";  c #1A1715",
":  c #1B1416",
">  c #1F1614",
",  c #1F1516",
"<  c #1B1817",
"1  c #1E1816",
"2  c #171618",
"3  c #151A1D",
"4  c #181919",
"5  c #1C1918",
"6  c #1C1A19",
"7  c #1F1C1B",
"8  c #1F1A1D",
"9  c #1B1C1C",
"0  c #1D1C1C",
"q  c #1E1F1F",
"w  c #201717",
"e  c #201919",
"r  c #211B1B",
"t  c #082329",
"y  c #1D2020",
"u  c #1F2425",
"i  c #1D2526",
"p  c #1A242A",
"a  c #182B2F",
"s  c #042930",
"d  c #162832",
"f  c #03313B",
"g  c #02343D",
"h  c #09393C",
"j  c #0B3B3E",
"k  c #193032",
"l  c #202121",
"z  c #242022",
"x  c #242322",
"c  c #232225",
"v  c #282727",
"b  c #272827",
"n  c #272B2C",
"m  c #252C31",
"M  c #27333B",
"N  c #2A333A",
"B  c #26383D",
"V  c #31343A",
"C  c #36383C",
"Z  c #033D43",
"A  c #003A4B",
"S  c #113442",
"D  c #113942",
"F  c #163E48",
"G  c #052B55",
"H  c #0D3C5E",
"J  c #10474A",
"K  c #0F4153",
"L  c #0E4550",
"P  c #004258",
"I  c #06465D",
"U  c #114756",
"Y  c #1E4D53",
"T  c #1E4158",
"R  c #00555B",
"E  c #0D5458",
"W  c #344048",
"Q  c #35414A",
"!  c #38444B",
"~  c #3A454D",
"^  c #2B4855",
"/  c #024062",
"(  c #044367",
")  c #054567",
"_  c #0D4660",
"`  c #054B63",
"'  c #065562",
"]  c #00546C",
"[  c #015A69",
"{  c #1E516B",
"}  c #017077",
"|  c #0D7073",
" . c #0B747C",
".. c #306072",
"X. c #404B54",
"o. c #465A65",
"O. c #47616B",
"+. c #4D6571",
"@. c #527082",
"#. c #547583",
"$. c #1987A9",
"%. c #1597B9",
"&. c #2D8BAB",
"*. c #399AB7",
"=. c #5F8C9A",
"-. c #4E96AB",
";. c #5F93A7",
":. c #6393A3",
">. c #51A6BF",
",. c #70A6B7",
"<. c #04A9D0",
"1. c #25A1C9",
"2. c #42B2CC",
"3. c #68ABC1",
"4. c #74B3C5",
"5. c #62BDD7",
"6. c #7BBDD3",
"7. c #7DC2D5",
"8. c #7EC1D6",
"9. c #67DBF6",
"0. c #8DE0F4",
"q. c #98E6F7",
"w. c None",
/* pixels */
"w.w.w.w.w.w.w.w.w.w.w.w.w.w.w.w.",
"w.w.w.w.w.w.w.w.w.w.w.w.w.w.w.w.",
"w.w.w.w.w.w.P ' |  .} w.w.w.w.w.",
"w.w.w.w.A U B y 9 u k j R w.w.w.",
"w.w.w.] ..X.- b l * : X.Y [ w.w.",
"w.w.w.F C 6.N $ , V 4.7., K w.w.",
"w.w.g u e ,.7.8 M 5.0.~ * p ( w.",
"w.w.L 0 ; W q.3.%.2.W $ y x _ w.",
"w.w.D v 6 @ @.9.<.{   X * 6 H w.",
"w.w.s n 6 c $.&.*.1.>.#.! m G w.",
"w.w.w.a , ;.-.2 l O.=.:.+.T w.w.",
"w.w.w.f ^ o.1 6 O X + o d / w.w.",
"w.w.w.w.` t & r e ; 3 S ( w.w.w.",
"w.w.w.w.w.w.Z h J E I w.w.w.w.w.",
"w.w.w.w.w.w.w.w.w.w.w.w.w.w.w.w.",
"w.w.w.w.w.w.w.w.w.w.w.w.w.w.w.w."
};
