/* XPM */
static char *_de3190bbf064f1ad7df7ea5e383c49c[] = {
/* columns rows colors chars-per-pixel */
"64 64 256 2 ",
"   c #0F0F0F",
".  c #130C0B",
"X  c #1B0E0C",
"o  c #150A07",
"O  c #14110D",
"+  c #1C120E",
"@  c #00171A",
"#  c #001A1D",
"$  c #0F1717",
"%  c #141414",
"&  c #1B1514",
"*  c #1E1916",
"=  c #171718",
"-  c #161A1A",
";  c #1B1C1C",
":  c #210E0D",
">  c #22120E",
",  c #221514",
"<  c #241915",
"1  c #231D1B",
"2  c #291C19",
"3  c #1F201F",
"4  c #25201E",
"5  c #2C221C",
"6  c #001E22",
"7  c #1C1F20",
"8  c #161F22",
"9  c #001637",
"0  c #2A1F20",
"q  c #002125",
"w  c #00252A",
"e  c #002A2E",
"r  c #162124",
"t  c #1F2021",
"y  c #16272C",
"u  c #002C32",
"i  c #00253D",
"p  c #00283A",
"a  c #072931",
"s  c #162C37",
"d  c #003236",
"f  c #00343B",
"g  c #08373D",
"h  c #13363D",
"j  c #1A3137",
"k  c #222323",
"l  c #2A2321",
"z  c #252629",
"x  c #26292C",
"c  c #2A2B2C",
"v  c #332826",
"b  c #222D31",
"n  c #2B2E32",
"m  c #2E3034",
"M  c #2F323A",
"N  c #25363A",
"B  c #333334",
"V  c #32353D",
"C  c #001C44",
"Z  c #002642",
"A  c #002B43",
"S  c #082E4D",
"D  c #003443",
"F  c #003B42",
"G  c #00354A",
"H  c #003C4B",
"J  c #0D3C48",
"K  c #1B3C42",
"L  c #173D4B",
"P  c #002E51",
"I  c #00225A",
"U  c #003154",
"Y  c #003D53",
"T  c #00355B",
"R  c #163F56",
"E  c #263C43",
"W  c #323642",
"Q  c #353A45",
"!  c #3B3B45",
"~  c #3A3D4A",
"^  c #363D4B",
"/  c #043A69",
"(  c #002C71",
")  c #403E4B",
"_  c #00444C",
"`  c #08444B",
"'  c #014456",
"]  c #004C53",
"[  c #00445A",
"{  c #014B5B",
"}  c #0E4B5A",
"|  c #11495D",
" . c #00545A",
".. c #005157",
"X. c #185155",
"o. c #3C414D",
"O. c #314045",
"+. c #254C57",
"@. c #3C4454",
"#. c #3F4A5B",
"$. c #3B4656",
"%. c #004B63",
"&. c #064465",
"*. c #164D66",
"=. c #025264",
"-. c #015B62",
";. c #00526B",
":. c #025A6C",
">. c #0B5566",
",. c #145968",
"<. c #004876",
"1. c #025B73",
"2. c #055C77",
"3. c #3C5162",
"4. c #00636C",
"5. c #016D74",
"6. c #01647D",
"7. c #056779",
"8. c #02747C",
"9. c #05737B",
"0. c #10787E",
"q. c #434553",
"w. c #43495B",
"e. c #494B5A",
"r. c #434E61",
"t. c #455266",
"y. c #49586C",
"u. c #485D74",
"i. c #51576B",
"p. c #4C647B",
"a. c #4A6279",
"s. c #51637B",
"d. c #66667F",
"f. c #003980",
"g. c #044D88",
"h. c #005885",
"j. c #08588E",
"k. c #036483",
"l. c #066887",
"z. c #087784",
"x. c #026C9C",
"c. c #046895",
"v. c #00739C",
"b. c #037897",
"n. c #10728C",
"m. c #016DAD",
"M. c #0163A7",
"N. c #0175A3",
"B. c #007CA6",
"V. c #0478AA",
"C. c #017CBD",
"Z. c #0779B1",
"A. c #107CAD",
"S. c #397BA1",
"D. c #546C85",
"F. c #4E718A",
"G. c #52728E",
"H. c #477E9B",
"J. c #587B96",
"K. c #4D6A82",
"L. c #007FC0",
"P. c #09828B",
"I. c #008C9B",
"U. c #088995",
"Y. c #14929C",
"T. c #09969E",
"R. c #0084AB",
"E. c #0783A8",
"W. c #0299A7",
"Q. c #008CB3",
"!. c #0285B2",
"~. c #0095BB",
"^. c #009ABE",
"/. c #0B94B5",
"(. c #1593BB",
"). c #3A88AA",
"_. c #3087B0",
"`. c #02A2AE",
"'. c #01ABB7",
"]. c #11A9B2",
"[. c #59819C",
"{. c #4B86A3",
"}. c #458DAF",
"|. c #4D8DAA",
" X c #598AA8",
".X c #5C91AE",
"XX c #5C95B3",
"oX c #5597B5",
"OX c #648FA9",
"+X c #628AA4",
"@X c #6A9AB5",
"#X c #6692AB",
"$X c #71A6BE",
"%X c #0785C3",
"&X c #029EC3",
"*X c #0897C1",
"=X c #3F9EC7",
"-X c #04A2C3",
";X c #0BA7C8",
":X c #1DA8C6",
">X c #17A6C7",
",X c #02A3D1",
"<X c #10B3D7",
"1X c #23AAC8",
"2X c #2CADCA",
"3X c #25A7CB",
"4X c #3AB1CD",
"5X c #39BAD6",
"6X c #2DB2D0",
"7X c #46A8C9",
"8X c #49B8D2",
"9X c #54BCD6",
"0X c #5CBDD7",
"qX c #4EB3CE",
"wX c #63A5C4",
"eX c #69ACC9",
"rX c #73AEC7",
"tX c #6DB1CD",
"yX c #78B4CC",
"uX c #6FBDD9",
"iX c #6DB6D3",
"pX c #7CBCD4",
"aX c #7CBBD4",
"sX c #05C0CB",
"dX c #03C8D3",
"fX c #5AC2DA",
"gX c #49C0DA",
"hX c #65C5DC",
"jX c #6BC9DE",
"kX c #69C7DD",
"lX c #79C0DA",
"zX c #54C5E1",
"xX c #64CCE5",
"cX c #6DCCE3",
"vX c #75CBE3",
"bX c #76CAE4",
"nX c #6DD0E8",
"mX c #7CD1E5",
"MX c #77D6ED",
"NX c #80BED6",
"BX c #83D2E7",
"VX c #84D6EB",
"CX c #8AD7EB",
"ZX c #8EDBEB",
"AX c #82D8EF",
"SX c #91DDEC",
"DX c #84DCF3",
"FX c #89DEF2",
"GX c #81C9E1",
"HX c #92E0EE",
"JX c #8DE2F5",
"KX c #8BE5FA",
"LX c #93E4F4",
"PX c #94EBFB",
"IX c #98E7F5",
"UX c None",
/* pixels */
"UXUXUXUXUXUXUXUXUXUXUXUXUXUXUXUXUXUXUXUXUXUXUXUXUXUXUXUXUXUXUXUXUXUXUXUXUXUXUXUXUXUXUXUXUXUXUXUXUXUXUXUXUXUXUXUXUXUXUXUXUXUXUXUX",
"UXUXUXUXUXUXUXUXUXUXUXUXUXUXUXUXUXUXUXUXUXUXUXUXUXUXUXUXUXUXUXUXUXUXUXUXUXUXUXUXUXUXUXUXUXUXUXUXUXUXUXUXUXUXUXUXUXUXUXUXUXUXUXUX",
"UXUXUXUXUXUXUXUXUXUXUXUXUXUXUXUXUXUXUXUXUXUXUXUXUXUXUXUXUXUXUXUXUXUXUXUXUXUXUXUXUXUXUXUXUXUXUXUXUXUXUXUXUXUXUXUXUXUXUXUXUXUXUXUX",
"UXUXUXUXUXUXUXUXUXUXUXUXUXUXUXUXUXUXUXUXUXUXUXUXUXUXUXUXUXUXUXUXUXUXUXUXUXUXUXUXUXUXUXUXUXUXUXUXUXUXUXUXUXUXUXUXUXUXUXUXUXUXUXUX",
"UXUXUXUXUXUXUXUXUXUXUXUXUXUXUXUXUXUXUXUXUXUXUXUXUXUXUXUXUXUXUXUXUXUXUXUXUXUXUXUXUXUXUXUXUXUXUXUXUXUXUXUXUXUXUXUXUXUXUXUXUXUXUXUX",
"UXUXUXUXUXUXUXUXUXUXUXUXUXUXUXUXUXUXUXUXUXUXUXUXUXUXUXUXUXUXUXUXUXUXUXUXUXUXUXUXUXUXUXUXUXUXUXUXUXUXUXUXUXUXUXUXUXUXUXUXUXUXUXUX",
"UXUXUXUXUXUXUXUXUXUXUXUXUXUXUXUXUXUXUXUXUXUXUXUXUXUXUXUXUXUXUXUXUXUXUXUXUXUXUXUXUXUXUXUXUXUXUXUXUXUXUXUXUXUXUXUXUXUXUXUXUXUXUXUX",
"UXUXUXUXUXUXUXUXUXUXUXUXUXUXUXUXUXUXUXUXUXUXUXUXUXUXUXUXUXUXUXUXUXUXUXUXUXUXUXUXUXUXUXUXUXUXUXUXUXUXUXUXUXUXUXUXUXUXUXUXUXUXUXUX",
"UXUXUXUXUXUXUXUXUXUXUXUXUXUXUXUXUXUXUXUXUXUXUXUXUXUXUXUX:.4.-. . . ..... .UXUXUXUXUXUXUXUXUXUXUXUXUXUXUXUXUXUXUXUXUXUXUXUXUXUXUX",
"UXUXUXUXUXUXUXUXUXUXUXUXUXUXUXUXUXUXUXUXUXUXUXUXp p D { 5.I.'.'.'.'.`.W.P.8.-. .-.UXUXUXUXUXUXUXUXUXUXUXUXUXUXUXUXUXUXUXUXUXUXUX",
"UXUXUXUXUXUXUXUXUXUXUXUXUXUXUXUXUXUXUXUXUX[ D D Y ;.6.l.b.U.Y.Y.Y.Y.].].sXdXsX`.8..._ UXUXUXUXUXUXUXUXUXUXUXUXUXUXUXUXUXUXUXUXUX",
"UXUXUXUXUXUXUXUXUXUXUXUXUXUXUXUXUXUXUX=.;.;.k.v.k.| h 8 & X X X > > , < 4 N X.n.W.I.4.F u UXUXUXUXUXUXUXUXUXUXUXUXUXUXUXUXUXUXUX",
"UXUXUXUXUXUXUXUXUXUXUXUXUXUXUXUXUXUXG %.R.<Xn.K ; & & * * * - ; 1 - ; ; & & X X + h 7.P.4.f u UXUXUXUXUXUXUXUXUXUXUXUXUXUXUXUXUX",
"UXUXUXUXUXUXUXUXUXUXUXUXUXUXUXUXq u [ R.E.+.v 5 l t ; - ; - ; - ; = = ; ; ; ; - - + X j 0.I...u UXUXUXUXUXUXUXUXUXUXUXUXUXUXUXUX",
"UXUXUXUXUXUXUXUXUXUXUXUXUXUXUXw w ' k.L < 5 B B c x k ; ; ; - ; ; ; = = ; 7 t k ; ; 3 ; * X.T.5.d d UXUXUXUXUXUXUXUXUXUXUXUXUXUX",
"UXUXUXUXUXUXUXUXUXUXUXUXUXUXG u =.>.z 1 4 4 z B B c x z ; 3 ; ; ; = ; ; ; 1 ; k l z k k k < r U.I.f d UXUXUXUXUXUXUXUXUXUXUXUXUX",
"UXUXUXUXUXUXUXUXUXUXUXUXUX;.Y 6.| o.$.n t 3 k z n B B l k 1 3 ; ; ; ; ; - ; ; ; 7 t k k k k 1 , 0.`.f d UXUXUXUXUXUXUXUXUXUXUXUX",
"UXUXUXUXUXUXUXUXUXUXUXUX%.1.E.} k p.wX@.b ; ; 4 k c n B c k 3 3 ; ; - - ; = = = = ; 7 k c x z ; : 0.`.F f UXUXUXUXUXUXUXUXUXUXUX",
"UXUXUXUXUXUXUXUXUXUXUXG %.,Xn.> x y.AXXXQ z ; ; k t k c n c x 4 1 ; ; ; = ; = % % ; z V $.$.M z 1 > P.W.D UXUXUXUXUXUXUXUXUXUXUX",
"UXUXUXUXUXUXUXUXUXUXUXD R.*X2 1 z @.pXJXG.M t ; ; ; 7 t l c n c x k t 1 ; = = = t n #. XuXuXu.n 7 k < /.b.D UXUXUXUXUXUXUXUXUXUX",
"UXUXUXUXUXUXUXUXUXUXw ] &XB 4 3 k ^ @XPXbXy.n ; ; ; ; 1 ; t z c c c c k t 1 7 c ~ G.uXJXLXPXG.c ; 7 1 x ,X;.G UXUXUXUXUXUXUXUXUX",
"UXUXUXUXUXUXUXUXUXw w c.+.v x t k V J.LXLXeXw.b ; ; ; ; ; ; 1 ; k z c c c n W t.XXDXLXZXHXBXt.t % = ; > ,.*XY UXUXUXUXUXUXUXUXUX",
"UXUXUXUXUXUXUXUXUXq H 2.l m x 4 t n a.BXHXJX X~ z ; ; ; ; ; ; ; 3 ; l z m ) K.iXFXSXZXZXLXOXM &   % % - X Z.h.G UXUXUXUXUXUXUXUX",
"UXUXUXUXUXUXUXUXw w :.j 4 m c k t x #.yXLXHXAXG.W k = = = ; ; ; ; ; k c ) G.bXLXSXZXZXLXaXr.b = % & = - & L C.G UXUXUXUXUXUXUXUX",
"UXUXUXUXUXUXUXUXq F >.* k c c l 4 k Q OXLXZXHXbXa.n 7 - = = = ; ; ; x o.J.nXFXZXZXZXLXBXs.V k ; ; = = ; ; , Z.g.U UXUXUXUXUXUXUX",
"UXUXUXUXUXUXUXUXw { J & 3 z n c k k n s.CXSXZXLXiXr.x 1 = ; ; = ; c q.{.xXnXmXCXZXSXFXJ.Q z t t ; ; = = - + *.m.U UXUXUXUXUXUXUX",
"UXUXUXUXUXUXUXu u :.; & ; k c c z ; x @.rXLXZXZXLXwX#.z ; = ; ; n e.|.zXkXjXvXBXSXJX+X~ c 4 t t t ; ; = ; & r m.U UXUXUXUXUXUXUX",
"UXUXUXUXUXUXUXu H >.& - ; 1 k z c k k M J.JXZXZXSXJXXX~ n ; ; n e.}.5X9XfXhXcXmXFXOX~ c t t t t t t ; ; ; ; + n.&.Z UXUXUXUXUXUX",
"UXUXUXUXUXUXUXd  .} & - ; ; ; z z l ; x #.aXLXZXZXSXJX X~ b n e.).6X4X8X9XhXkXMX#X@.x 7 7 7 t t k k t 1 ; ; > 2.h.i UXUXUXUXUXUX",
"UXUXUXUXUXUXUXF 6.L * ; - ; ; k k z 3 7 m J.JXSXZXZXSXDX Xe.i.).;X:X2X4XqX9XxXXXq.n t ; ; ; 1 7 t t 7 k k t < *.N.A UXUXUXUXUXUX",
"UXUXUXUXUXUXUX_ I.E 1 ; ; - ; 1 k l t ; z $.rXIXZXZXZXCXnXXX}.&X-X-X:X4X8XzXXXe.M z k ; 1 7 ; ; ; ; t t k k 2 L Z.P UXUXUXUXUXUX",
"UXUXUXUXUXUXUXF R.E 1 ; ; & - ; ; k z 3 ; n p.CXSXZXZXBXvXzX>XQ.^.-X;X1X5X|.q.x 7 ; k k t k k k k t 1 t k k 2 K C.T UXUXUXUXUXUX",
"UXUXUXUXUXUXw d b.O.z 4 4 ; - - ; 1 k k 7 7 W +XLXZXZXmXhXfX8X(.~.^.-X<X{.! t % % % % % = - - ; ; k t k k x 0 N C.T UXUXUXUXUXUX",
"UXUXUXUXUXUXw a 7.B B x 3 ; - * ; ; t k k 7 z o.rXIXZXmXhX8X4X:X^.^.;X{.) 4                 % % % - ; - t t l E %X/ UXUXUXUXUXUX",
"UXUXUXUXUXUXUXw :.b B B k 3 ; - = = ; t k k ; n t.pXIXmXhX8X2X-X~.^.=Xd.V -             % % % % % % % % = = & E %X<.UXUXUXUXUXUX",
"UXUXUXUXUXUXUXq =.j 4 B n 4 7 ; = = ; ; k k t t ~ J.jXHXkX8X2X&X~.R.!._.p.! k - % % % % % = % = = % & % % % . s g.P UXUXUXUXUXUX",
"UXUXUXUXUXUXUX6 ] K ; c B c 4 ; ; = = - ; t z n i._.x.qXVX0X4X-X~.!.B.N.A.S.y.! c t ; ; ; 3 4 3 7 ; 3 - * % X S f.9 UXUXUXUXUXUX",
"UXUXUXUXUXUXUX@ H J & k n c 3 3 ; = & ; ; ; c e.).!.v.x.7XnX9X1X^.Q.E.x.x.V.(.S.y.) m c x x z l z z l 4 7 ; : / ( 9 UXUXUXUXUXUX",
"UXUXUXUXUXUXUX@ u { & t x c z 3 ; - = - ; t ~ {.&X!.B.B.B.7XvXfX1X^.Q.R.V.R.Q.&X3X}.p.$.V m b z l z z z k 3 - g.I 9 UXUXUXUXUXUX",
"UXUXUXUXUXUXUX6 q { r ; l c z 4 1 ; ; = 7 m K.>X&X~.Q.&X).s.D.eXcXgX2X>X*X>X:X4XgXxXnXeX[.y.o.V m c c n c l j M.C UXUXUXUXUXUXUX",
"UXUXUXUXUXUXUXUX@ H h & k c z k ; ; = ; c t.7X5X:X-X;X).) c m #.J.rXmXnXnXjXvXvXVXZXSXLXFXvXwX[.a.#.Q M B 5 7.M.9 UXUXUXUXUXUXUX",
"UXUXUXUXUXUXUXUX@ u ] = t c c t ; ; = z ~ oXxX9X8X6X{.! t % % t M w.D.@XpXZXLXIXIXIXLXLXLXIXPXPXMXlXoX3.v 5 C.g.U UXUXUXUXUXUXUX",
"UXUXUXUXUXUXUXUX# # ' s 1 c z 1 ; - ; m G.MXmXnX0XD.! z %   O % - x V ! w.a.J.#X$XyXaXlXlXpXyXrX$XOXF.o.0 R m.U UXUXUXUXUXUXUXUX",
"UXUXUXUXUXUXUXUXUX@ e ' & z z 1 = = z r.lXIXLXtXs.Q z ; % % %   % & ; x c m m M W ^ o.o.@.@.^ W M n z k , M./ Z UXUXUXUXUXUXUXUX",
"UXUXUXUXUXUXUXUXUX6 @ H h 2 z ; % ; W XXPXLX@Xt.V c k ; - %   % % % % = 3 l z k z 3 t t ; ; ; ; = = = X | M.i UXUXUXUXUXUXUXUXUX",
"UXUXUXUXUXUXUXUXUXUX@ 6 =.b 4 7 = z a.DXFXJ.~ n k z k 3 ; = % % %   % % % ; 4 z z t 3 ; - - % = = = + y m.U i UXUXUXUXUXUXUXUXUX",
"UXUXUXUXUXUXUXUXUXUXUX@ D 7.l 2 t ^ tXGXs.M z ; ; k k t 1 ; - &     % % % % - ; 4 k z k k k 4 7 ; * = V.<.Z UXUXUXUXUXUXUXUXUXUX",
"UXUXUXUXUXUXUXUXUXUXUX6 # 1.l.2 k 3. X#.x ; % = ; ; k 7 t t ; - % %     % % % - - ; ; 4 k z z l k 2 Z.j.A UXUXUXUXUXUXUXUXUXUXUX",
"UXUXUXUXUXUXUXUXUXUXUXUXq u c.7.0 n n t = % % % = ; t 7 7 t 7 ; - %   %   % % = = - - ; 7 7 t 2 2 A.%XU U UXUXUXUXUXUXUXUXUXUXUX",
"UXUXUXUXUXUXUXUXUXUXUXUXUXf Y x.l.; & %   %   % = = ; t ; 4 k ; ; - % % %   % % & % % = = ; & ; x.m.P U UXUXUXUXUXUXUXUXUXUXUXUX",
"UXUXUXUXUXUXUXUXUXUXUXUXUXUXY [ l.k.8 o   % % % % & = t ; ; ; t k ; ; * % % % % % = = % % o y x.h.Z A UXUXUXUXUXUXUXUXUXUXUXUXUX",
"UXUXUXUXUXUXUXUXUXUXUXUXUXUXUX[ Y ;.l.J . .   % % % = ; k k ; t ; k ; - - - & % % = % X & | V.&.i Z UXUXUXUXUXUXUXUXUXUXUXUXUXUX",
"UXUXUXUXUXUXUXUXUXUXUXUXUXUXUXUX[ H Y 6.2.a . .   % % % ; k 3 ; k k ; ; ; - - % % o & L N.b.Y A UXUXUXUXUXUXUXUXUXUXUXUXUXUXUXUX",
"UXUXUXUXUXUXUXUXUXUXUXUXUXUXUXUXUXUXH D ' 1.4.g $ o o   & ; t t ; t k k 1 & X X 8 | x.N.;.G Y UXUXUXUXUXUXUXUXUXUXUXUXUXUXUXUXUX",
"UXUXUXUXUXUXUXUXUXUXUXUXUXUXUXUXUXUXUXH g f ] 4.5.-.` s - $ & < > + , ; y K >.n.v.c.&.A A UXUXUXUXUXUXUXUXUXUXUXUXUXUXUXUXUXUXUX",
"UXUXUXUXUXUXUXUXUXUXUXUXUXUXUXUXUXUXUXUXUX_ f d f ] 4.9.z.z.9.9.P.Y.T.`.'.`.I.1.Y i p UXUXUXUXUXUXUXUXUXUXUXUXUXUXUXUXUXUXUXUXUX",
"UXUXUXUXUXUXUXUXUXUXUXUXUXUXUXUXUXUXUXUXUXUXUXUXd u e u f ] ..-.4.5.8.5.-.] f F D UXUXUXUXUXUXUXUXUXUXUXUXUXUXUXUXUXUXUXUXUXUXUX",
"UXUXUXUXUXUXUXUXUXUXUXUXUXUXUXUXUXUXUXUXUXUXUXUXUXUXUXUXe e e e u d F ] ] UXUXUXUXUXUXUXUXUXUXUXUXUXUXUXUXUXUXUXUXUXUXUXUXUXUXUX",
"UXUXUXUXUXUXUXUXUXUXUXUXUXUXUXUXUXUXUXUXUXUXUXUXUXUXUXUXUXUXUXUXUXUXUXUXUXUXUXUXUXUXUXUXUXUXUXUXUXUXUXUXUXUXUXUXUXUXUXUXUXUXUXUX",
"UXUXUXUXUXUXUXUXUXUXUXUXUXUXUXUXUXUXUXUXUXUXUXUXUXUXUXUXUXUXUXUXUXUXUXUXUXUXUXUXUXUXUXUXUXUXUXUXUXUXUXUXUXUXUXUXUXUXUXUXUXUXUXUX",
"UXUXUXUXUXUXUXUXUXUXUXUXUXUXUXUXUXUXUXUXUXUXUXUXUXUXUXUXUXUXUXUXUXUXUXUXUXUXUXUXUXUXUXUXUXUXUXUXUXUXUXUXUXUXUXUXUXUXUXUXUXUXUXUX",
"UXUXUXUXUXUXUXUXUXUXUXUXUXUXUXUXUXUXUXUXUXUXUXUXUXUXUXUXUXUXUXUXUXUXUXUXUXUXUXUXUXUXUXUXUXUXUXUXUXUXUXUXUXUXUXUXUXUXUXUXUXUXUXUX",
"UXUXUXUXUXUXUXUXUXUXUXUXUXUXUXUXUXUXUXUXUXUXUXUXUXUXUXUXUXUXUXUXUXUXUXUXUXUXUXUXUXUXUXUXUXUXUXUXUXUXUXUXUXUXUXUXUXUXUXUXUXUXUXUX",
"UXUXUXUXUXUXUXUXUXUXUXUXUXUXUXUXUXUXUXUXUXUXUXUXUXUXUXUXUXUXUXUXUXUXUXUXUXUXUXUXUXUXUXUXUXUXUXUXUXUXUXUXUXUXUXUXUXUXUXUXUXUXUXUX"
};
