/* XPM */
static char *_6adb9e0d3e548d0d0ee5cd73e805fae[] = {
/* columns rows colors chars-per-pixel */
"32 32 216 2 ",
"   c #0F0603",
".  c #0D0D0C",
"X  c #130E0C",
"o  c #1E0F0D",
"O  c #10100F",
"+  c #19110E",
"@  c #00191D",
"#  c #151414",
"$  c #1B1414",
"%  c #1B1817",
"&  c #171718",
"*  c #1B1718",
"=  c #141A1C",
"-  c #1C1B1B",
";  c #20100E",
":  c #221613",
">  c #221817",
",  c #221C1C",
"<  c #291D1C",
"1  c #1F201F",
"2  c #24211F",
"3  c #001F23",
"4  c #161F2A",
"5  c #241F21",
"6  c #002126",
"7  c #002228",
"8  c #0F252B",
"9  c #1E2121",
"0  c #1A272A",
"q  c #16282C",
"w  c #192A2F",
"e  c #002D35",
"r  c #0C2F31",
"t  c #002F39",
"y  c #122C32",
"u  c #182E31",
"i  c #162F39",
"p  c #02343B",
"a  c #0F373F",
"s  c #003B3E",
"d  c #14333C",
"f  c #193538",
"g  c #1D3A3C",
"h  c #232222",
"j  c #2B2424",
"k  c #24242A",
"l  c #2B272C",
"z  c #252929",
"x  c #2A2A2B",
"c  c #2B2B31",
"v  c #312C30",
"b  c #2F3135",
"n  c #2E333D",
"m  c #333334",
"M  c #30353E",
"N  c #002A4A",
"B  c #013741",
"V  c #003C44",
"C  c #003549",
"Z  c #033C48",
"A  c #083F4B",
"S  c #123645",
"D  c #193444",
"F  c #103A46",
"G  c #1C3A46",
"H  c #003352",
"J  c #003E55",
"K  c #00395C",
"L  c #193F58",
"P  c #2A3F4A",
"I  c #333743",
"U  c #343B46",
"Y  c #393C46",
"T  c #333C49",
"R  c #012760",
"E  c #003267",
"W  c #003F66",
"Q  c #003C68",
"!  c #00434C",
"~  c #004B4F",
"^  c #1F4041",
"/  c #1C444C",
"(  c #16484B",
")  c #054652",
"_  c #004A50",
"`  c #00465C",
"'  c #034B5E",
"]  c #0B4C5E",
"[  c #1C4F51",
"{  c #025157",
"}  c #05545A",
"|  c #0A575D",
" . c #2A474E",
".. c #39424F",
"X. c #3C4556",
"o. c #3D4D5B",
"O. c #024E66",
"+. c #004D6B",
"@. c #10496A",
"#. c #0E5264",
"$. c #005D65",
"%. c #0C5F66",
"&. c #09506F",
"*. c #055969",
"=. c #1C5465",
"-. c #034575",
";. c #004779",
":. c #004C7B",
">. c #005674",
",. c #035479",
"<. c #04587C",
"1. c #0E587E",
"2. c #125A73",
"3. c #3F5364",
"4. c #3D576D",
"5. c #365B76",
"6. c #00626B",
"7. c #0D6369",
"8. c #13676C",
"9. c #006A73",
"0. c #0C667A",
"q. c #026E7F",
"w. c #03727B",
"e. c #0A737A",
"r. c #326076",
"t. c #414E5C",
"y. c #42505E",
"u. c #415564",
"i. c #445967",
"p. c #455969",
"a. c #435E70",
"s. c #4C697A",
"d. c #0D5F87",
"f. c #0B5C8A",
"g. c #016683",
"h. c #06618D",
"j. c #016B89",
"k. c #116E87",
"l. c #047C87",
"z. c #097A81",
"x. c #0B6796",
"c. c #027391",
"v. c #037A9B",
"b. c #3D6E85",
"n. c #257293",
"m. c #287596",
"M. c #357992",
"N. c #0075A6",
"B. c #007AA5",
"V. c #187EA6",
"C. c #526F84",
"Z. c #527285",
"A. c #50758D",
"S. c #5C7A8E",
"D. c #557D92",
"F. c #587A90",
"G. c #00868F",
"H. c #02929B",
"J. c #0498A1",
"K. c #1785B0",
"L. c #0096BC",
"P. c #019ABE",
"I. c #5C8195",
"U. c #5C889E",
"Y. c #628B9D",
"T. c #5C89A0",
"R. c #6295AC",
"E. c #6E9EB2",
"W. c #09A1C3",
"Q. c #07A8CD",
"!. c #0BA9C8",
"~. c #1CA1C3",
"^. c #2DA7CB",
"/. c #25ABCB",
"(. c #3DA8CA",
"). c #29B1CF",
"_. c #33B0CC",
"`. c #28B2D2",
"'. c #35B8D7",
"]. c #40ADCA",
"[. c #46B1CF",
"{. c #58B3CE",
"}. c #4CBED8",
"|. c #6DA9C2",
" X c #73ABC1",
".X c #6FB0C7",
"XX c #76B6CE",
"oX c #61B8D3",
"OX c #68B9D7",
"+X c #75B7D2",
"@X c #75BCD3",
"#X c #7EBED3",
"$X c #42C1DE",
"%X c #5CC6DF",
"&X c #67C3DC",
"*X c #7EC5DD",
"=X c #56C8E3",
"-X c #63C7E2",
";X c #76CFE4",
":X c #7FC9E0",
">X c #75D1E7",
",X c #82C5DB",
"<X c #85CADF",
"1X c #82C9E1",
"2X c #8FDDEC",
"3X c #91DBED",
"4X c #83DCF0",
"5X c #8ADCF4",
"6X c #8DE1F5",
"7X c #8FE6FB",
"8X c #94E5F5",
"9X c #94E7F9",
"0X c #95E9FA",
"qX c #98EDFC",
"wX c #9BF3FE",
"eX c None",
/* pixels */
"eXeXeXeXeXeXeXeXeXeXeXeXeXeXeXeXeXeXeXeXeXeXeXeXeXeXeXeXeXeXeXeX",
"eXeXeXeXeXeXeXeXeXeXeXeXeXeXeXeXeXeXeXeXeXeXeXeXeXeXeXeXeXeXeXeX",
"eXeXeXeXeXeXeXeXeXeXeXeXeXeXeXeXeXeXeXeXeXeXeXeXeXeXeXeXeXeXeXeX",
"eXeXeXeXeXeXeXeXeXeXeXeXeXeXeXeXeXeXeXeXeXeXeXeXeXeXeXeXeXeXeXeX",
"eXeXeXeXeXeXeXeXeXeXeXeXC ` q.H.J.H.H.G.9.eXeXeXeXeXeXeXeXeXeXeX",
"eXeXeXeXeXeXeXeXeXeXj.g.] F d f g ^ [ 8.e.6.! eXeXeXeXeXeXeXeXeX",
"eXeXeXeXeXeXeXeX3 O.k. .2 % $ # $ % o o $ u %.$.eXeXeXeXeXeXeXeX",
"eXeXeXeXeXeXeXC ] G : j m x - - & & - 1 5 , , ( w.s eXeXeXeXeXeX",
"eXeXeXeXeXeX>.j.P F.c & z v x 2 - & % & # - k < g l.V eXeXeXeXeX",
"eXeXeXeXeXeXv./ < XXU.- & , z x z h & # , a..Xs.o / c.eXeXeXeXeX",
"eXeXeXeXeXZ =.< - Y.7Xp.% & - 1 z x j I R.6XwXs.O o 2.,.eXeXeXeX",
"eXeXeXeX6 ) x x - p.9X*XT # & & % % o.+X9XqX Xk # # 1 h.eXeXeXeX",
"eXeXeXeXp a , x h n #XqX Xc # & > 3.oX4X8X,X..- - - o @.;.eXeXeX",
"eXeXeXeX! q % z z , I.0X9XR.5 , 3.[.%X>X<Xt.& 2 h - % i +.eXeXeX",
"eXeXeXeX*.9 & - h - I 1X8X6XT.4.~.`.}.&Xp.- - - 9 h 5 0 <.eXeXeX",
"eXeXeXeX0.z - & - h * Z.8X2X>X^.P.!.(.o.- - 2 9 - 9 h z f.eXeXeX",
"eXeXeX7 ] m h & & h , h E.9X&X_.P.~.t.  . . . # & & - k x.eXeXeX",
"eXeXeXeX! x v , & & 9 % X.OX;X/.L.K.5.x # X # & & & # = -.eXeXeX",
"eXeXeXeXp 0 x h - & $ v m.N.(.=XW.B.N.V.r.n h , 2 9 - 4 R eXeXeX",
"eXeXeXeXt u 2 z - % , b.Q.P.n.S.{.'./.).=X@XU.u.n v j / E eXeXeX",
"eXeXeXeX3 p 5 x - # o.-X$XM.j X Y S. X<X3X9X0X5X+XA.l f.Q eXeXeX",
"eXeXeXeXeXt w j & k @X5XZ.j # . X * c T o.i.i.u.o.m D -.eXeXeXeX",
"eXeXeXeXeX@ A h & D.<Xy., 9 - & # O & - , % # # X $ ,.N eXeXeXeX",
"eXeXeXeXeXeXt #.l Z.n X & h 9 - # . O # & 2 h 2 2 d.W eXeXeXeXeX",
"eXeXeXeXeXeXeX+.2.&   O # - h - - & # # # & + , 1.:.eXeXeXeXeXeX",
"eXeXeXeXeXeXeXeX+.O.8 X X & - , - - & # X # d <.K eXeXeXeXeXeXeX",
"eXeXeXeXeXeXeXeXeX! ' ) y = & - , , , 0 S &.>.J eXeXeXeXeXeXeXeX",
"eXeXeXeXeXeXeXeXeXeXeX! _ { } | %.e.z.q.+.H eXeXeXeXeXeXeXeXeXeX",
"eXeXeXeXeXeXeXeXeXeXeXeXeXeXp V ~ $.eXeXeXeXeXeXeXeXeXeXeXeXeXeX",
"eXeXeXeXeXeXeXeXeXeXeXeXeXeXeXeXeXeXeXeXeXeXeXeXeXeXeXeXeXeXeXeX",
"eXeXeXeXeXeXeXeXeXeXeXeXeXeXeXeXeXeXeXeXeXeXeXeXeXeXeXeXeXeXeXeX",
"eXeXeXeXeXeXeXeXeXeXeXeXeXeXeXeXeXeXeXeXeXeXeXeXeXeXeXeXeXeXeXeX"
};
